<svg width="104" height="104" viewBox="0 0 104 104" fill="none" xmlns="http://www.w3.org/2000/svg">
<g filter="url(#filter0_dd)">
<path d="M16 46C16 28.3269 30.3269 14 48 14C65.6731 14 80 28.3269 80 46C80 63.6731 65.6731 78 48 78C30.3269 78 16 63.6731 16 46Z" fill="#724BE4"/>
<path d="M51.0008 38.7925L52.5507 37.2419C52.7595 37.0356 53.0236 36.8944 53.3111 36.8355C53.5985 36.7765 53.8968 36.8022 54.1699 36.9096L56.0589 37.6641C56.3349 37.7762 56.5715 37.9675 56.739 38.2138C56.9065 38.4602 56.9973 38.7507 57 39.0486V42.5098C56.9984 42.7124 56.9558 42.9127 56.8748 43.0985C56.7938 43.2842 56.6761 43.4517 56.5287 43.5907C56.3813 43.7298 56.2073 43.8376 56.0171 43.9076C55.827 43.9776 55.6247 44.0083 55.4223 43.9981C42.1853 43.1743 39.5143 31.9601 39.0092 27.6683C38.9858 27.4575 39.0072 27.2442 39.0721 27.0423C39.137 26.8404 39.2438 26.6546 39.3857 26.497C39.5275 26.3394 39.7011 26.2137 39.895 26.128C40.0889 26.0423 40.2988 25.9987 40.5108 26H43.8529C44.1511 26.0009 44.4423 26.091 44.6889 26.2588C44.9355 26.4266 45.1263 26.6643 45.2368 26.9415L45.991 28.8313C46.1019 29.1034 46.1302 29.4021 46.0724 29.6902C46.0145 29.9783 45.8731 30.2429 45.6658 30.4511L44.1158 32.0017C44.1158 32.0017 45.0085 38.0449 51.0008 38.7925Z" fill="white"/>
<path d="M38.6953 61.4699C39.2944 61.4699 39.594 61.7157 39.594 62.2072C39.594 62.7181 39.2944 62.9735 38.6953 62.9735H33.0035C32.7439 62.9735 32.5392 62.9012 32.3894 62.7566C32.2397 62.6024 32.1648 62.4145 32.1648 62.1928C32.1648 61.9036 32.2796 61.6434 32.5093 61.412L35.9243 57.8699C36.3437 57.4265 36.6482 57.0217 36.838 56.6554C37.0377 56.2795 37.1375 55.9084 37.1375 55.5422C37.1375 55.0892 37.0027 54.7422 36.7331 54.5012C36.4635 54.2602 36.0791 54.1398 35.5798 54.1398C35.1704 54.1398 34.771 54.2169 34.3815 54.3711C34.0021 54.5157 33.6176 54.7181 33.2282 54.9783C33.1284 55.0458 33.0285 55.1036 32.9286 55.1518C32.8288 55.1904 32.7289 55.2096 32.6291 55.2096C32.4593 55.2096 32.3095 55.1325 32.1797 54.9783C32.0599 54.8241 32 54.641 32 54.4289C32 54.2843 32.025 54.159 32.0749 54.053C32.1348 53.947 32.2247 53.8458 32.3445 53.7494C32.7839 53.412 33.2981 53.147 33.8873 52.9542C34.4764 52.7518 35.0655 52.6506 35.6547 52.6506C36.6832 52.6506 37.502 52.9012 38.1111 53.4024C38.7302 53.9036 39.0398 54.5783 39.0398 55.4265C39.0398 56.0145 38.91 56.5687 38.6503 57.0892C38.3907 57.6 37.9513 58.1735 37.3322 58.8096L34.741 61.4699H38.6953Z" fill="white"/>
<path d="M47.3465 59.5325C47.646 59.5325 47.8707 59.5952 48.0205 59.7205C48.1703 59.8458 48.2452 60.0241 48.2452 60.2554C48.2452 60.7373 47.9456 60.9783 47.3465 60.9783H46.5826V62.1205C46.5826 62.4193 46.4927 62.6506 46.313 62.8145C46.1432 62.9783 45.9185 63.0602 45.639 63.0602C45.3594 63.0602 45.1297 62.9783 44.95 62.8145C44.7802 62.6506 44.6953 62.4193 44.6953 62.1205V60.9783H40.771C40.5014 60.9783 40.2917 60.906 40.1419 60.7614C39.9922 60.6072 39.9173 60.4193 39.9173 60.1976C39.9173 59.9663 39.9972 59.7446 40.1569 59.5325L44.7852 53.1133C44.8851 52.9783 45.0099 52.8771 45.1597 52.8096C45.3094 52.7325 45.4642 52.694 45.624 52.694C45.8836 52.694 46.1083 52.7759 46.298 52.9398C46.4877 53.1036 46.5826 53.3349 46.5826 53.6337V59.5325H47.3465ZM41.9094 59.5325H44.6953V55.6434L41.9094 59.5325Z" fill="white"/>
<path d="M50.3812 63.4651C50.3213 63.6482 50.2264 63.7831 50.0966 63.8699C49.9668 63.9566 49.822 64 49.6622 64C49.4625 64 49.2828 63.9325 49.123 63.7976C48.9732 63.6723 48.8984 63.5084 48.8984 63.306C48.8984 63.2193 48.9133 63.1325 48.9433 63.0458L52.4182 52.5349C52.4781 52.3518 52.573 52.2169 52.7028 52.1301C52.8326 52.0434 52.9774 52 53.1372 52C53.3369 52 53.5116 52.0675 53.6614 52.2024C53.8212 52.3277 53.9011 52.4916 53.9011 52.694C53.9011 52.7807 53.8861 52.8675 53.8561 52.9542L50.3812 63.4651Z" fill="white"/>
<path d="M62.1912 52.7807C62.4508 52.7807 62.6505 52.853 62.7903 52.9976C62.9301 53.1325 63 53.3108 63 53.5325C63 53.7542 62.9301 53.9855 62.7903 54.2265L58.0123 62.5976C57.8125 62.9253 57.5379 63.0892 57.1884 63.0892C56.9488 63.0892 56.7341 63.012 56.5444 62.8578C56.3646 62.694 56.2748 62.4964 56.2748 62.2651C56.2748 62.1012 56.3247 61.9373 56.4246 61.7735L60.7233 54.2843H56.1999C55.6008 54.2843 55.3012 54.0386 55.3012 53.547C55.3012 53.0361 55.6008 52.7807 56.1999 52.7807H62.1912Z" fill="white"/>
</g>
<defs>
<filter id="filter0_dd" x="0" y="0" width="104" height="104" filterUnits="userSpaceOnUse" color-interpolation-filters="sRGB">
<feFlood flood-opacity="0" result="BackgroundImageFix"/>
<feColorMatrix in="SourceAlpha" type="matrix" values="0 0 0 0 0 0 0 0 0 0 0 0 0 0 0 0 0 0 127 0"/>
<feOffset dx="4" dy="6"/>
<feGaussianBlur stdDeviation="10"/>
<feColorMatrix type="matrix" values="0 0 0 0 0.387044 0 0 0 0 0.1972 0 0 0 0 0.58 0 0 0 0.3 0"/>
<feBlend mode="normal" in2="BackgroundImageFix" result="effect1_dropShadow"/>
<feColorMatrix in="SourceAlpha" type="matrix" values="0 0 0 0 0 0 0 0 0 0 0 0 0 0 0 0 0 0 127 0"/>
<feOffset/>
<feGaussianBlur stdDeviation="1.5"/>
<feColorMatrix type="matrix" values="0 0 0 0 0 0 0 0 0 0 0 0 0 0 0 0 0 0 0.13 0"/>
<feBlend mode="normal" in2="effect1_dropShadow" result="effect2_dropShadow"/>
<feBlend mode="normal" in="SourceGraphic" in2="effect2_dropShadow" result="shape"/>
</filter>
</defs>
</svg>
