<svg width="32" height="32" viewBox="0 0 32 32" fill="none" xmlns="http://www.w3.org/2000/svg">
<path d="M16 2.58065C23.4163 2.58065 29.4194 8.58252 29.4194 16C29.4194 23.4163 23.4175 29.4194 16 29.4194C8.58368 29.4194 2.58065 23.4175 2.58065 16C2.58065 8.58368 8.58252 2.58065 16 2.58065ZM16 0C7.16342 0 0 7.16342 0 16C0 24.8366 7.16342 32 16 32C24.8366 32 32 24.8366 32 16C32 7.16342 24.8366 0 16 0ZM16 3.6129C9.15877 3.6129 3.6129 9.15877 3.6129 16C3.6129 22.8412 9.15877 28.3871 16 28.3871C22.8412 28.3871 28.3871 22.8412 28.3871 16C28.3871 9.15877 22.8412 3.6129 16 3.6129ZM16 6.45161C17.2827 6.45161 18.3226 7.49148 18.3226 8.77419C18.3226 10.0569 17.2827 11.0968 16 11.0968C14.7173 11.0968 13.6774 10.0569 13.6774 8.77419C13.6774 7.49148 14.7173 6.45161 16 6.45161ZM23.5962 12.7757C21.7438 13.213 20.0148 13.5981 18.2968 13.7955C18.3517 20.3131 19.0908 21.7343 19.9121 23.8355C20.1455 24.433 19.8504 25.1064 19.253 25.3397C18.6555 25.5731 17.9821 25.278 17.7487 24.6806C17.1871 23.2414 16.6464 22.0589 16.3125 19.6129H15.6876C15.3543 22.0549 14.8145 23.2392 14.2514 24.6806C14.0181 25.2777 13.3449 25.5732 12.7472 25.3397C12.1497 25.1064 11.8546 24.4329 12.088 23.8355C12.9082 21.7361 13.6483 20.3168 13.7033 13.7955C11.9853 13.5982 10.2563 13.2131 8.40387 12.7757C7.84903 12.6446 7.50542 12.0887 7.63645 11.5338C7.76748 10.9789 8.32335 10.6354 8.87832 10.7664C15.1161 12.2392 16.8966 12.2363 23.1219 10.7664C23.6766 10.6354 24.2327 10.9789 24.3637 11.5338C24.4946 12.0887 24.151 12.6447 23.5962 12.7757Z" fill="black"/>
</svg>
