<svg width="18" height="18" viewBox="0 0 18 18" fill="none" xmlns="http://www.w3.org/2000/svg">
<path fill-rule="evenodd" clip-rule="evenodd" d="M8.34926 1.20337C8.05637 1.49627 8.05637 1.97114 8.34926 2.26403L14.2266 8.14133L1.74996 8.14133C1.33575 8.14133 0.999962 8.47712 0.999962 8.89133C0.999962 9.30555 1.33575 9.64133 1.74996 9.64133L14.0772 9.64133L8.34926 15.3693C8.05637 15.6622 8.05637 16.1371 8.34926 16.43C8.64215 16.7229 9.11702 16.7229 9.40992 16.43L16.4929 9.34702L17.0232 8.81669L17.0232 8.81667L17.0232 8.81665L16.4929 8.28632L9.40992 1.20337C9.11702 0.91048 8.64215 0.91048 8.34926 1.20337Z" fill="#353636"/>
</svg>
