<svg width="18" height="18" viewBox="0 0 18 18" fill="none" xmlns="http://www.w3.org/2000/svg">
<path d="M10.2771 10.2768C10.1116 10.4544 9.91212 10.5968 9.69044 10.6955C9.46877 10.7943 9.22947 10.8474 8.98682 10.8517C8.74417 10.856 8.50315 10.8114 8.27812 10.7205C8.0531 10.6296 7.84869 10.4943 7.67709 10.3227C7.50548 10.1511 7.3702 9.94668 7.27931 9.72165C7.18842 9.49663 7.14378 9.25561 7.14806 9.01296C7.15234 8.77031 7.20546 8.53101 7.30423 8.30934C7.403 8.08766 7.54541 7.88815 7.72296 7.7227M12.5782 12.5779C11.5485 13.3628 10.2946 13.7977 9.00002 13.8188C4.78332 13.8188 2.37378 8.99976 2.37378 8.99976C3.12308 7.60337 4.16234 6.38337 5.42185 5.42159L12.5782 12.5779ZM7.73501 4.32525C8.14965 4.22819 8.57417 4.17968 9.00002 4.18068C13.2167 4.18068 15.6263 8.99976 15.6263 8.99976C15.2606 9.68383 14.8245 10.3279 14.3251 10.9214L7.73501 4.32525Z" stroke="white" stroke-linecap="round" stroke-linejoin="round"/>
<path d="M2.37378 2.37354L15.6263 15.626" stroke="white" stroke-linecap="round" stroke-linejoin="round"/>
</svg>
