<svg width="20" height="20" viewBox="0 0 20 20" fill="none" xmlns="http://www.w3.org/2000/svg">
<path d="M11.7028 11.7025C11.4822 11.9393 11.2162 12.1292 10.9206 12.2609C10.625 12.3926 10.306 12.4634 9.98242 12.4691C9.65889 12.4748 9.33753 12.4153 9.0375 12.2941C8.73747 12.1729 8.46492 11.9925 8.23611 11.7637C8.00731 11.5349 7.82693 11.2624 7.70574 10.9623C7.58456 10.6623 7.52504 10.3409 7.53075 10.0174C7.53646 9.69387 7.60727 9.3748 7.73897 9.07924C7.87067 8.78367 8.06054 8.51765 8.29728 8.29706M14.7709 14.7707C13.3979 15.8172 11.7261 16.397 10 16.4252C4.37776 16.4252 1.16504 9.9998 1.16504 9.9998C2.16411 8.13795 3.54979 6.51128 5.22913 5.22891L14.7709 14.7707ZM8.31334 3.76712C8.8662 3.63772 9.43223 3.57303 10 3.57436C15.6223 3.57436 18.835 9.9998 18.835 9.9998C18.3475 10.9119 17.766 11.7706 17.1001 12.5619L8.31334 3.76712Z" stroke="#808080" stroke-linecap="round" stroke-linejoin="round"/>
<path d="M1.16479 1.16504L18.8348 18.835" stroke="#808080" stroke-linecap="round" stroke-linejoin="round"/>
</svg>
