<svg width="19" height="12" viewBox="0 0 19 12" fill="none" xmlns="http://www.w3.org/2000/svg">
<path fill-rule="evenodd" clip-rule="evenodd" d="M16.7553 11.0001C16.7553 11.5524 16.3076 12.0001 15.7553 12.0001H1.99826C1.44597 12.0001 0.998259 11.5524 0.998259 11.0001C0.998259 10.4478 1.44597 10.0001 1.99826 10.0001H15.7553C16.3076 10.0001 16.7553 10.4478 16.7553 11.0001ZM13.3884 5.99993C13.3884 6.55222 12.9407 6.99993 12.3884 6.99993H1.99826C1.44597 6.99993 0.998259 6.55222 0.998259 5.99993C0.998259 5.44765 1.44597 4.99993 1.99826 4.99993H12.3884C12.9407 4.99993 13.3884 5.44765 13.3884 5.99993ZM17.9999 0C18.5522 0 18.9999 0.447715 18.9999 1C18.9999 1.55228 18.5522 2 17.9999 2H1.99826C1.44597 2 0.998259 1.55228 0.998259 1C0.998259 0.447715 1.44597 0 1.99826 0H17.9999Z" fill="white" fill-opacity="0.9"/>
</svg>
