<svg width="31" height="12" viewBox="0 0 31 12" fill="none" xmlns="http://www.w3.org/2000/svg">
<path d="M6.69526 9.46988C7.29439 9.46988 7.59396 9.71566 7.59396 10.2072C7.59396 10.7181 7.29439 10.9735 6.69526 10.9735H1.00354C0.743918 10.9735 0.539216 10.9012 0.389434 10.7566C0.239652 10.6024 0.16476 10.4145 0.16476 10.1928C0.16476 9.90361 0.279593 9.64337 0.509259 9.41205L3.92429 5.86988C4.34368 5.42651 4.64824 5.02169 4.83797 4.65542C5.03767 4.27952 5.13753 3.90843 5.13753 3.54217C5.13753 3.08916 5.00273 2.74217 4.73312 2.50121C4.46351 2.26024 4.07907 2.13976 3.57979 2.13976C3.17039 2.13976 2.77097 2.21687 2.38154 2.37108C2.00209 2.51566 1.61765 2.71807 1.22821 2.97831C1.12836 3.04578 1.0285 3.10361 0.92865 3.15181C0.828795 3.19036 0.72894 3.20964 0.629085 3.20964C0.459332 3.20964 0.30955 3.13253 0.179739 2.97831C0.0599129 2.8241 0 2.64096 0 2.42892C0 2.28434 0.0249637 2.15904 0.0748911 2.05301C0.134804 1.94699 0.224673 1.84578 0.344499 1.7494C0.78386 1.41205 1.29811 1.14699 1.88726 0.954217C2.4764 0.751808 3.06554 0.650603 3.65469 0.650603C4.68319 0.650603 5.502 0.901205 6.11111 1.40241C6.73021 1.90361 7.03976 2.57831 7.03976 3.42651C7.03976 4.01446 6.90995 4.56868 6.65033 5.08916C6.39071 5.6 5.95135 6.17349 5.33225 6.80964L2.74101 9.46988H6.69526Z" fill="white"/>
<path d="M15.3465 7.53253C15.646 7.53253 15.8707 7.59518 16.0205 7.72048C16.1703 7.84578 16.2452 8.0241 16.2452 8.25542C16.2452 8.73735 15.9456 8.97831 15.3465 8.97831H14.5826V10.1205C14.5826 10.4193 14.4927 10.6506 14.313 10.8145C14.1432 10.9783 13.9185 11.0602 13.639 11.0602C13.3594 11.0602 13.1297 10.9783 12.95 10.8145C12.7802 10.6506 12.6953 10.4193 12.6953 10.1205V8.97831H8.77103C8.50143 8.97831 8.29173 8.90602 8.14195 8.76145C7.99217 8.60723 7.91727 8.41928 7.91727 8.19759C7.91727 7.96627 7.99716 7.74458 8.15693 7.53253L12.7852 1.11325C12.8851 0.978314 13.0099 0.877109 13.1597 0.809639C13.3094 0.732531 13.4642 0.693976 13.624 0.693976C13.8836 0.693976 14.1083 0.775904 14.298 0.93976C14.4877 1.10361 14.5826 1.33494 14.5826 1.63374V7.53253H15.3465ZM9.90938 7.53253H12.6953V3.64337L9.90938 7.53253Z" fill="white"/>
<path d="M18.3812 11.4651C18.3213 11.6482 18.2264 11.7831 18.0966 11.8699C17.9668 11.9566 17.822 12 17.6622 12C17.4625 12 17.2828 11.9325 17.123 11.7976C16.9732 11.6723 16.8984 11.5084 16.8984 11.306C16.8984 11.2193 16.9133 11.1325 16.9433 11.0458L20.4182 0.53494C20.4781 0.351807 20.573 0.216868 20.7028 0.130121C20.8326 0.0433735 20.9774 0 21.1372 0C21.3369 0 21.5116 0.0674699 21.6614 0.20241C21.8212 0.327711 21.9011 0.491567 21.9011 0.693976C21.9011 0.780723 21.8861 0.86747 21.8561 0.954217L18.3812 11.4651Z" fill="white"/>
<path d="M30.1912 0.780723C30.4508 0.780723 30.6505 0.853012 30.7903 0.99759C30.9301 1.13253 31 1.31084 31 1.53253C31 1.75422 30.9301 1.98554 30.7903 2.22651L26.0123 10.5976C25.8125 10.9253 25.5379 11.0892 25.1884 11.0892C24.9488 11.0892 24.7341 11.012 24.5444 10.8578C24.3646 10.694 24.2748 10.4964 24.2748 10.2651C24.2748 10.1012 24.3247 9.93735 24.4246 9.77349L28.7233 2.28434H24.1999C23.6008 2.28434 23.3012 2.03855 23.3012 1.54699C23.3012 1.03614 23.6008 0.780723 24.1999 0.780723H30.1912Z" fill="white"/>
</svg>
