<svg width="29" height="16" viewBox="0 0 29 16" fill="none" xmlns="http://www.w3.org/2000/svg">
<path d="M25 11L28.4641 6H21.5359L25 11Z" fill="white" fill-opacity="0.9"/>
<path fill-rule="evenodd" clip-rule="evenodd" d="M16 8C16 12.4183 12.4183 16 8 16C3.58172 16 0 12.4183 0 8C0 3.58172 3.58172 0 8 0C12.4183 0 16 3.58172 16 8ZM4.30418 8.84511H1.35073C1.64239 11.2924 3.25903 13.3389 5.46113 14.2447C5.3682 14.0536 5.27975 13.8509 5.19629 13.6359C4.68553 12.3227 4.37521 10.6448 4.30418 8.84511ZM8.00017 14.745C7.67079 14.745 7.13564 14.2232 6.6823 13.0579C6.2396 11.9193 5.96832 10.4454 5.90047 8.84503H10.0999C10.0321 10.4454 9.76074 11.9193 9.31791 13.0579C8.86477 14.2232 8.32955 14.745 8.00017 14.745ZM8.00017 1.35065C7.67079 1.35065 7.13557 1.87219 6.6823 3.03749C6.23967 4.17613 5.96832 5.64996 5.90047 7.25036H10.0999C10.032 5.65002 9.76067 4.17613 9.31791 3.03749C8.86477 1.87219 8.32955 1.35065 8.00017 1.35065ZM4.30418 7.25036H1.35073C1.64239 4.80304 3.25903 2.75655 5.46113 1.85104C5.3682 2.04216 5.27975 2.24461 5.19629 2.45957C4.6856 3.77275 4.37521 5.45068 4.30418 7.25036ZM10.539 1.85104C10.6319 2.04216 10.7203 2.24454 10.8039 2.45957C11.3146 3.77275 11.6249 5.45068 11.696 7.25036H14.6494C14.3578 4.80304 12.7411 2.75655 10.539 1.85104ZM10.539 14.2447C10.6319 14.0536 10.7203 13.8509 10.8039 13.6359C11.3146 12.3227 11.6249 10.6448 11.696 8.84511H14.6494C14.3578 11.2924 12.7411 13.3389 10.539 14.2447Z" fill="white" fill-opacity="0.9"/>
</svg>
