<svg width="18" height="18" viewBox="0 0 18 18" fill="none" xmlns="http://www.w3.org/2000/svg">
<path fill-rule="evenodd" clip-rule="evenodd" d="M8.0484 0C3.60339 0 0 3.60339 0 8.0484C0 12.4934 3.60339 16.0968 8.0484 16.0968C9.91048 16.0968 11.6249 15.4644 12.9885 14.4027L16.2929 17.7071C16.6834 18.0976 17.3166 18.0976 17.7071 17.7071C18.0976 17.3166 18.0976 16.6834 17.7071 16.2929L14.4027 12.9885C15.4644 11.6249 16.0968 9.91048 16.0968 8.0484C16.0968 3.60339 12.4934 0 8.0484 0ZM2 8.0484C2 4.70796 4.70796 2 8.0484 2C11.3888 2 14.0968 4.70796 14.0968 8.0484C14.0968 11.3888 11.3888 14.0968 8.0484 14.0968C4.70796 14.0968 2 11.3888 2 8.0484Z" fill="white" fill-opacity="0.9"/>
</svg>
