<svg width="37" height="33" viewBox="0 0 37 33" fill="none" xmlns="http://www.w3.org/2000/svg">
<path fill-rule="evenodd" clip-rule="evenodd" d="M0.249342 9.06115C-1.15218 17.1036 11.1103 27.112 18.5 32.2439C25.8897 27.112 38.1522 17.1036 36.7507 9.06115C36.5322 4.01921 32.4586 -7.62939e-06 27.4653 -7.62939e-06C23.916 -7.62939e-06 20.8314 1.11867 19.2657 2.65561C18.9428 2.97261 18.6844 3.30741 18.5 3.65385C18.3156 3.30741 18.0573 2.97261 17.7343 2.65561C16.1687 1.11867 13.084 -7.62939e-06 9.53466 -7.62939e-06C4.54139 -7.62939e-06 0.46776 4.01921 0.249342 9.06115ZM18.5 5.54078L17.577 4.27658C17.0596 3.6656 16.2542 2.84344 14.7976 2.22668C13.3777 1.62544 11.5494 1.23897 9.53466 1.23897C5.16193 1.23897 1.62863 4.75404 1.43964 9.1169L1.43603 9.20011L1.42175 9.28206C1.13459 10.9299 1.53148 12.7799 2.53172 14.7912C3.53013 16.7988 5.08247 18.8694 6.94897 20.8984C10.4541 24.7086 14.9331 28.2291 18.5 30.75C22.067 28.2291 26.5459 24.7086 30.051 20.8984C31.9175 18.8694 33.4699 16.7988 34.4683 14.7912C35.4685 12.7799 35.8654 10.9299 35.5783 9.28206L35.564 9.20011L35.5604 9.1169C35.3714 4.75404 31.8381 1.23897 27.4653 1.23897C25.4506 1.23897 23.6223 1.62544 22.2024 2.22668C20.7458 2.84344 19.8797 3.6656 19.4718 4.27658L18.5 5.54078Z" fill="white"/>
</svg>
