<svg width="19" height="18" viewBox="0 0 19 18" fill="none" xmlns="http://www.w3.org/2000/svg">
<path d="M10.52 0.600006C5.94759 0.600006 2.23999 4.36134 2.23999 9.00001H1.39144C0.981 9.00001 0.745386 9.4672 0.989379 9.79724L2.35588 11.6456C2.75561 12.1863 3.56438 12.1863 3.96411 11.6456L5.33061 9.79724C5.5746 9.4672 5.33899 9.00001 4.92855 9.00001H4.07999C4.07999 5.38801 6.95959 2.46667 10.52 2.46667C14.0804 2.46667 16.96 5.38801 16.96 9.00001C16.96 12.612 14.0804 15.5333 10.52 15.5333C9.082 15.5333 7.75263 15.0497 6.68335 14.2362C6.26993 13.9217 5.67597 13.9142 5.31131 14.2842C4.95497 14.6457 4.95194 15.231 5.34529 15.5519C6.76224 16.7076 8.55664 17.4 10.52 17.4C15.0924 17.4 18.8 13.6387 18.8 9.00001C18.8 4.36134 15.0924 0.600006 10.52 0.600006ZM10.29 5.26667C9.90892 5.26667 9.59999 5.5756 9.59999 5.95667V9.36815C9.59999 9.71887 9.78373 10.044 10.0842 10.2249L12.9702 11.9624C13.2825 12.1504 13.6882 12.0472 13.8727 11.7327C14.0541 11.4234 13.953 11.0258 13.646 10.8407L10.98 9.23334V5.95667C10.98 5.5756 10.6711 5.26667 10.29 5.26667Z" fill="#212121"/>
</svg>
