<svg width="18" height="15" viewBox="0 0 18 15" fill="none" xmlns="http://www.w3.org/2000/svg">
<path fill-rule="evenodd" clip-rule="evenodd" d="M16.1031 14.638C16.8729 14.638 17.3578 13.809 16.9804 13.1381L9.87873 0.513045C9.49395 -0.171014 8.50906 -0.171016 8.12428 0.513044L1.02269 13.1381C0.645294 13.8091 1.13013 14.638 1.89992 14.638H16.1031ZM9.63071 8.87018C9.62229 9.22543 9.33189 9.50904 8.97654 9.50904C8.62076 9.50904 8.33017 9.22478 8.32234 8.86908L8.25319 5.72672C8.24423 5.31952 8.57187 4.98459 8.97918 4.98459C9.38696 4.98459 9.71479 5.32028 9.70513 5.72794L9.63071 8.87018ZM8.23686 11.7785C8.23686 11.563 8.29905 11.3823 8.42344 11.2363C8.54783 11.0903 8.73216 11.0172 8.97641 11.0172C9.22068 11.0172 9.40613 11.0903 9.53278 11.2363C9.65945 11.3823 9.72274 11.563 9.72274 11.7785C9.72274 11.9939 9.65945 12.1723 9.53278 12.3136C9.40613 12.4548 9.22068 12.5254 8.97641 12.5254C8.73216 12.5254 8.54783 12.4548 8.42344 12.3136C8.29905 12.1723 8.23686 11.9939 8.23686 11.7785Z" fill="#653DC2"/>
</svg>
