<svg width="15" height="15" viewBox="0 0 15 15" fill="none" xmlns="http://www.w3.org/2000/svg">
<path fill-rule="evenodd" clip-rule="evenodd" d="M0.707108 0.778152C0.316584 1.16868 0.316584 1.80184 0.707108 2.19237L12.0208 13.5061C12.4113 13.8966 13.0445 13.8966 13.435 13.5061C13.8256 13.1155 13.8256 12.4824 13.435 12.0919L2.12132 0.778152C1.7308 0.387628 1.09763 0.387627 0.707108 0.778152Z" fill="#202020"/>
<path fill-rule="evenodd" clip-rule="evenodd" d="M0.707138 12.0209C0.316613 12.4114 0.316613 13.0446 0.707137 13.4351C1.09766 13.8257 1.73083 13.8257 2.12135 13.4351L13.4351 2.12143C13.8256 1.7309 13.8256 1.09774 13.4351 0.707212C13.0445 0.316688 12.4114 0.316688 12.0208 0.707212L0.707138 12.0209Z" fill="#202020"/>
</svg>
